<svg width="280" height="201" viewBox="0 0 280 201" fill="none" xmlns="http://www.w3.org/2000/svg">
<g filter="url(#filter0_d_5707_2105)">
<rect x="60" y="55" width="160" height="81" rx="10" fill="white"/>
</g>
<g clip-path="url(#clip0_5707_2105)">
<path d="M107.591 82.0027H108.356C111.011 82.0603 113.623 83.1254 115.499 85.0109C114.806 85.7162 114.099 86.3926 113.421 87.0979C112.367 86.148 111.098 85.4139 109.712 85.1548C107.663 84.723 105.456 85.1116 103.739 86.2775C101.863 87.5009 100.593 89.5736 100.319 91.7901C100.016 93.9779 100.636 96.2809 102.065 97.9793C103.436 99.6345 105.528 100.671 107.692 100.743C109.712 100.858 111.819 100.239 113.291 98.8285C114.445 97.8353 114.979 96.324 115.152 94.8559C112.757 94.8559 110.362 94.8703 107.966 94.8559V91.8909H118.053C118.572 95.0718 117.822 98.6558 115.398 100.93C113.781 102.542 111.545 103.492 109.265 103.679C107.057 103.895 104.777 103.478 102.815 102.412C100.463 101.16 98.5872 99.0444 97.6637 96.5543C96.7979 94.2658 96.7835 91.675 97.5915 89.3721C98.3274 87.2706 99.7415 85.4139 101.56 84.1185C103.306 82.8375 105.427 82.1322 107.591 82.0027Z" fill="#3780FF"/>
<path d="M165.454 82.7509H168.542V103.305C167.517 103.305 166.479 103.319 165.454 103.29C165.469 96.4534 165.454 89.6021 165.454 82.7509Z" fill="#38B137"/>
<path d="M124.921 89.8757C126.826 89.5158 128.89 89.9188 130.462 91.0559C131.891 92.0634 132.887 93.6467 133.19 95.3739C133.579 97.3746 133.089 99.5624 131.79 101.146C130.39 102.916 128.096 103.866 125.859 103.722C123.81 103.607 121.819 102.585 120.607 100.915C119.236 99.073 118.904 96.5398 119.655 94.3808C120.405 92.0634 122.526 90.2931 124.921 89.8757ZM125.354 92.6104C124.575 92.8119 123.854 93.2581 123.334 93.8914C121.935 95.561 122.021 98.2814 123.565 99.8358C124.445 100.728 125.773 101.146 126.999 100.901C128.139 100.699 129.135 99.9366 129.683 98.9291C130.636 97.2163 130.361 94.8558 128.904 93.5172C127.966 92.6536 126.595 92.2937 125.354 92.6104Z" fill="#FA3913"/>
<path d="M140.217 89.8756C142.396 89.4582 144.776 90.0627 146.407 91.5884C149.062 93.9633 149.351 98.4109 147.085 101.146C145.714 102.873 143.492 103.823 141.299 103.722C139.207 103.664 137.143 102.628 135.902 100.915C134.503 99.0298 134.2 96.439 134.993 94.2368C135.787 91.9914 137.865 90.2786 140.217 89.8756ZM140.65 92.6104C139.87 92.8119 139.149 93.2581 138.629 93.877C137.244 95.5178 137.302 98.195 138.788 99.7639C139.668 100.699 141.039 101.16 142.309 100.901C143.435 100.685 144.445 99.9366 144.993 98.929C145.931 97.2018 145.657 94.8413 144.185 93.5027C143.247 92.6391 141.876 92.2937 140.65 92.6104Z" fill="#FCBD06"/>
<path d="M153.189 90.7105C154.848 89.6741 157.056 89.3863 158.845 90.2787C159.408 90.5233 159.87 90.9408 160.317 91.3582C160.331 90.9695 160.317 90.5665 160.331 90.1635C161.298 90.1779 162.265 90.1635 163.246 90.1779V102.873C163.232 104.787 162.741 106.817 161.356 108.213C159.841 109.753 157.518 110.228 155.425 109.911C153.189 109.58 151.241 107.954 150.375 105.895C151.241 105.478 152.15 105.147 153.044 104.758C153.549 105.939 154.574 106.946 155.858 107.176C157.142 107.407 158.629 107.09 159.466 106.025C160.36 104.931 160.36 103.434 160.317 102.096C159.653 102.743 158.888 103.319 157.965 103.535C155.959 104.096 153.751 103.405 152.208 102.052C150.649 100.699 149.726 98.6124 149.812 96.5398C149.856 94.1936 151.183 91.9339 153.189 90.7105ZM156.176 92.5528C155.295 92.6967 154.473 93.1861 153.91 93.8626C152.554 95.4747 152.554 98.0511 153.925 99.6343C154.704 100.57 155.959 101.088 157.171 100.959C158.311 100.843 159.365 100.124 159.927 99.1306C160.88 97.4465 160.721 95.158 159.437 93.6899C158.643 92.7831 157.373 92.3369 156.176 92.5528Z" fill="#3780FF"/>
<path d="M172.25 91.4445C173.981 89.8325 176.651 89.2855 178.873 90.1347C180.98 90.9264 182.322 92.9271 183 94.9853C179.869 96.2807 176.752 97.5617 173.621 98.8571C174.054 99.6775 174.717 100.426 175.612 100.728C176.867 101.174 178.368 101.016 179.421 100.181C179.84 99.8647 180.172 99.4473 180.489 99.0442C181.283 99.5768 182.076 100.095 182.87 100.628C181.745 102.312 179.854 103.492 177.82 103.679C175.569 103.952 173.173 103.089 171.716 101.333C169.321 98.5693 169.551 93.9346 172.25 91.4445ZM173.794 94.1073C173.303 94.8126 173.101 95.6762 173.116 96.5254C175.208 95.6618 177.3 94.7982 179.393 93.9202C179.046 93.1142 178.209 92.6248 177.358 92.4953C175.987 92.2506 174.559 92.9846 173.794 94.1073Z" fill="#FA3913"/>
</g>
<defs>
<filter id="filter0_d_5707_2105" x="0" y="0" width="280" height="201" filterUnits="userSpaceOnUse" color-interpolation-filters="sRGB">
<feFlood flood-opacity="0" result="BackgroundImageFix"/>
<feColorMatrix in="SourceAlpha" type="matrix" values="0 0 0 0 0 0 0 0 0 0 0 0 0 0 0 0 0 0 127 0" result="hardAlpha"/>
<feOffset dy="5"/>
<feGaussianBlur stdDeviation="30"/>
<feColorMatrix type="matrix" values="0 0 0 0 0.0284375 0 0 0 0 0.136552 0 0 0 0 0.1625 0 0 0 0.08 0"/>
<feBlend mode="normal" in2="BackgroundImageFix" result="effect1_dropShadow_5707_2105"/>
<feBlend mode="normal" in="SourceGraphic" in2="effect1_dropShadow_5707_2105" result="shape"/>
</filter>
<clipPath id="clip0_5707_2105">
<rect width="86" height="28" fill="white" transform="translate(97 82)"/>
</clipPath>
</defs>
</svg>
