<svg width="76" height="76" viewBox="0 0 76 76" fill="none" xmlns="http://www.w3.org/2000/svg">
<path d="M75.7997 38.4524C71.0294 59.4 58.8917 76 38.0346 76C17.1775 76 2.65464 59.4 0.269519 38.4524C-2.54763 13.7104 17.1775 0 38.0346 0C58.8917 0 78.1849 11.9714 75.7997 38.4524Z" fill="#FFDCA8"/>
<circle cx="43" cy="37" r="15" fill="white"/>
<g clip-path="url(#clip0_4208_6315)">
<path d="M53.9959 29.7367L46.0935 21.8343C44.981 20.7219 43.171 20.7219 42.0583 21.8343L37.6146 26.278C37.3553 26.5373 37.3553 26.9576 37.6146 27.2169C37.8739 27.4762 38.2942 27.4762 38.5535 27.2169L42.9972 22.7732C43.5921 22.1783 44.56 22.1785 45.1546 22.7732L53.057 30.6756C53.6518 31.2704 53.6518 32.2382 53.057 32.8331L40.0374 45.8526C39.7493 46.1408 39.3661 46.2995 38.9586 46.2995C38.5512 46.2995 38.168 46.1408 37.8799 45.8526L37.3364 45.3091L40.3704 42.2751C41.402 41.2435 41.402 39.565 40.3704 38.5334C39.3388 37.5018 37.6604 37.5017 36.6288 38.5334L33.9387 41.2235L33.5031 41.2297C33.4237 41.2308 33.3447 41.2344 33.2659 41.2387L29.9776 37.9503C29.3827 37.3555 29.3827 36.3877 29.9776 35.7929L34.3286 31.4418C34.5878 31.1826 34.5878 30.7622 34.3286 30.5029C34.0694 30.2437 33.649 30.2437 33.3897 30.5029L29.0387 34.854C27.9262 35.9665 27.9262 37.7767 29.0387 38.8892L31.6971 41.5475C30.8894 41.8282 30.1489 42.2884 29.5284 42.9088C28.4609 43.9762 27.8645 45.3953 27.8488 46.9048L27.8439 47.3765L21.3648 53.8557C21.1056 54.1149 21.1056 54.5353 21.3648 54.7946C21.4945 54.9242 21.6644 54.9891 21.8343 54.9891C22.0042 54.9891 22.1741 54.9242 22.3037 54.7946L28.9744 48.124C29.0972 48.0011 29.167 47.8351 29.1688 47.6614L29.1765 46.9187C29.1885 45.7586 29.6469 44.6681 30.4672 43.8478C31.2832 43.0318 32.368 42.5736 33.5218 42.5573L34.2269 42.5474C34.3997 42.5449 34.5647 42.4752 34.687 42.353L37.5677 39.4723C38.0816 38.9585 38.9177 38.9585 39.4316 39.4723C39.9455 39.9862 39.9455 40.8224 39.4316 41.3362L35.1107 45.6572C34.8514 45.9164 34.8514 46.3368 35.1107 46.5961C35.3699 46.8553 35.7903 46.8553 36.0495 46.5961L36.3976 46.248L36.9411 46.7915C37.4975 47.3479 38.228 47.626 38.9588 47.6259C39.6894 47.6258 40.4202 47.3477 40.9764 46.7915L44.0606 43.7074L42.3429 48.3588C41.8379 49.7264 40.6988 50.7796 39.296 51.1762L33.9858 52.6769C33.8766 52.7077 33.7772 52.7661 33.6969 52.8463L32.6765 53.8667C32.4172 54.126 32.4172 54.5463 32.6765 54.8056C32.8061 54.9352 32.976 55.0001 33.1459 55.0001C33.3158 55.0001 33.4857 54.9352 33.6153 54.8056L34.5134 53.9076L39.657 52.4539C41.4672 51.9423 42.9368 50.5834 43.5885 48.8188L46.3046 41.4635L53.9961 33.772C55.1083 32.6594 55.1083 30.8492 53.9959 29.7367Z" fill="#272830"/>
<path d="M42.6935 38.9971C42.8231 39.1267 42.993 39.1915 43.1629 39.1915C43.3328 39.1915 43.5027 39.1267 43.6323 38.9971L50.5225 32.1069C50.7817 31.8477 50.7817 31.4273 50.5225 31.168C50.2631 30.9088 49.8429 30.9088 49.5835 31.168L42.6935 38.0582C42.4342 38.3174 42.4342 38.7378 42.6935 38.9971Z" fill="#272830"/>
<path d="M35.4314 33.5994L33.2125 35.8183C32.9533 36.0775 32.9533 36.4979 33.2125 36.7572C33.3422 36.8868 33.512 36.9516 33.6819 36.9516C33.8518 36.9516 34.0218 36.8868 34.1514 36.7572L36.3702 34.5383C36.6295 34.2791 36.6295 33.8587 36.3702 33.5994C36.111 33.3402 35.6906 33.3402 35.4314 33.5994Z" fill="#272830"/>
<path d="M35.9715 29.5236C36.1461 29.5236 36.3174 29.4526 36.4408 29.329C36.5643 29.2056 36.6354 29.0349 36.6354 28.8597C36.6354 28.6851 36.5643 28.5139 36.4408 28.3904C36.3174 28.2669 36.1461 28.1959 35.9715 28.1959C35.7969 28.1959 35.6256 28.2668 35.5021 28.3904C35.3787 28.5139 35.3076 28.6851 35.3076 28.8597C35.3076 29.035 35.3787 29.2056 35.5021 29.329C35.6256 29.4526 35.797 29.5236 35.9715 29.5236Z" fill="#272830"/>
<path d="M44.1926 30.5193C42.8926 30.5193 41.835 29.4616 41.835 28.1616C41.835 26.8616 42.8926 25.8039 44.1926 25.8039C45.4926 25.8039 46.5503 26.8616 46.5503 28.1616C46.5503 29.4616 45.4926 30.5193 44.1926 30.5193ZM44.1926 27.1316C43.6247 27.1316 43.1627 27.5936 43.1627 28.1616C43.1627 28.7295 43.6247 29.1915 44.1926 29.1915C44.7605 29.1915 45.2225 28.7295 45.2225 28.1616C45.2225 27.5936 44.7605 27.1316 44.1926 27.1316Z" fill="#272830"/>
</g>
<defs>
<clipPath id="clip0_4208_6315">
<rect width="34" height="34" fill="white" transform="translate(21 21)"/>
</clipPath>
</defs>
</svg>
