<svg width="76" height="76" viewBox="0 0 76 76" fill="none" xmlns="http://www.w3.org/2000/svg">
<path d="M75.7997 38.4524C71.0294 59.4 58.8917 76 38.0346 76C17.1775 76 2.65464 59.4 0.269519 38.4524C-2.54763 13.7104 17.1775 0 38.0346 0C58.8917 0 78.1849 11.9714 75.7997 38.4524Z" fill="#FFD7D7"/>
<path d="M45.4625 33.8365L39.4198 38.7018C38.2762 39.5983 36.6732 39.5983 35.5296 38.7018L29.4351 33.8365" stroke="#1E2875" stroke-width="2" stroke-linecap="round" stroke-linejoin="round"/>
<path fill-rule="evenodd" clip-rule="evenodd" d="M30.7577 25.9583H44.114C46.0398 25.9799 47.8727 26.794 49.1859 28.2111C50.4991 29.6282 51.178 31.5244 51.0644 33.4583V42.7061C51.178 44.64 50.4991 46.5363 49.1859 47.9534C47.8727 49.3704 46.0398 50.1845 44.114 50.2061H30.7577C26.6212 50.2061 23.8333 46.8409 23.8333 42.7061V33.4583C23.8333 29.3235 26.6212 25.9583 30.7577 25.9583Z" stroke="#1E2875" stroke-width="2" stroke-linecap="round" stroke-linejoin="round"/>
</svg>
