<svg width="76" height="76" viewBox="0 0 76 76" fill="none" xmlns="http://www.w3.org/2000/svg">
<path d="M75.7997 38.4524C71.0294 59.4 58.8917 76 38.0346 76C17.1775 76 2.65464 59.4 0.269519 38.4524C-2.54763 13.7104 17.1775 0 38.0346 0C58.8917 0 78.1849 11.9714 75.7997 38.4524Z" fill="#C2F0FF"/>
<circle cx="45" cy="45" r="15" fill="white"/>
<g clip-path="url(#clip0_4208_6331)">
<path d="M53.4329 53.6719H51.9764V32.5239C51.9764 31.5396 51.1755 30.7388 50.1913 30.7388H46.9358C45.9514 30.7388 45.1506 31.5396 45.1506 32.5239V53.6719H41.4523V42.1056C41.4523 41.1213 40.6515 40.3205 39.6672 40.3205H36.4117C35.4274 40.3205 34.6266 41.1213 34.6266 42.1056V53.6719H30.9283V47.6818C30.9283 46.6975 30.1274 45.8967 29.1431 45.8967H25.8876C24.9032 45.8967 24.1024 46.6975 24.1024 47.6818V53.6719H22.5674C22.2006 53.6719 21.9033 53.9692 21.9033 54.336C21.9033 54.7027 22.2006 55 22.5674 55H53.4329C53.7996 55 54.0969 54.7027 54.0969 54.336C54.0969 53.9692 53.7996 53.6719 53.4329 53.6719ZM29.6 53.6719H25.4305V47.6818C25.4305 47.4298 25.6355 47.2248 25.8875 47.2248H29.143C29.395 47.2248 29.6 47.4298 29.6 47.6818V53.6719ZM40.1241 53.6719H35.9546V42.1056C35.9546 41.8536 36.1596 41.6486 36.4116 41.6486H39.6671C39.9191 41.6486 40.1241 41.8536 40.1241 42.1056V53.6719ZM50.6483 53.6719H46.4787V32.5239C46.4787 32.2719 46.6837 32.0669 46.9358 32.0669H50.1913C50.4433 32.0669 50.6483 32.2719 50.6483 32.5239V53.6719Z" fill="#272830"/>
<path d="M51.9746 21.6983C51.9839 21.5171 51.9202 21.3328 51.7818 21.1944C51.6434 21.056 51.4591 20.9922 51.2779 21.0016C51.2672 21.0011 51.2566 21 51.2457 21H47.2282C46.8614 21 46.5641 21.2973 46.5641 21.6641C46.5641 22.0308 46.8614 22.3281 47.2282 22.3281H49.7089L43.1442 28.8929L40.6686 26.4173C40.544 26.2928 40.3751 26.2228 40.199 26.2228C40.0229 26.2228 39.854 26.2928 39.7294 26.4173L27.7917 38.3551C27.5323 38.6145 27.5323 39.0349 27.7917 39.2943C27.9213 39.4239 28.0913 39.4887 28.2612 39.4887C28.4311 39.4887 28.6011 39.4239 28.7308 39.2942L40.199 27.8259L42.6746 30.3015C42.9339 30.5608 43.3544 30.5608 43.6138 30.3015L50.6481 23.2673V25.5125C50.6481 25.8793 50.9454 26.1766 51.3122 26.1766C51.6789 26.1766 51.9762 25.8793 51.9762 25.5125V21.7305C51.9762 21.7196 51.9751 21.7091 51.9746 21.6983Z" fill="#272830"/>
<path d="M26.0229 41.8057C26.3897 41.8057 26.687 41.5084 26.687 41.1417C26.687 40.7749 26.3897 40.4776 26.0229 40.4776C25.6562 40.4776 25.3589 40.7749 25.3589 41.1417C25.3589 41.5084 25.6562 41.8057 26.0229 41.8057Z" fill="#272830"/>
</g>
<defs>
<clipPath id="clip0_4208_6331">
<rect width="34" height="34" fill="white" transform="translate(21 21)"/>
</clipPath>
</defs>
</svg>
