<svg width="280" height="201" viewBox="0 0 280 201" fill="none" xmlns="http://www.w3.org/2000/svg">
<g filter="url(#filter0_d_5707_2118)">
<rect x="60" y="55" width="160" height="81" rx="10" fill="white"/>
</g>
<path fill-rule="evenodd" clip-rule="evenodd" d="M160.703 79H163.627L150.743 111.31H147.822L160.703 79ZM166.549 79H172.392L159.507 111.31H153.663L166.549 79ZM175.314 79H187L174.115 111.31H162.429L175.314 79Z" fill="#C6D373"/>
<path fill-rule="evenodd" clip-rule="evenodd" d="M119.269 95.3587C119.303 95.707 120.16 96.3615 119.405 98.7505C118.52 101.558 118.539 102.056 116.621 106.66C116.439 107.098 112.531 96.4949 112.531 96.4949C112.496 96.3763 112.531 95.8551 112.785 95.3444C111.06 95.3444 106.734 95.3198 106.468 95.3444C109.025 98.2206 113.735 111.149 113.735 111.149H116.812C118.794 106.659 119.976 103.006 121.862 98.6039C122.387 97.3802 122.948 96.4752 123.717 95.3581H119.269V95.3587ZM94.8809 106.738C94.8809 108.04 94.777 110.178 94.1438 111.197H100.101C99.4664 110.178 99.5353 109.002 99.3461 107.367V100.701C99.5353 98.8768 100.48 98.1856 102.238 98.1856C103.083 98.1856 104.124 98.4366 104.879 98.6876C104.943 97.4923 104.943 97.4305 104.879 95.2914C102.238 95.0404 99.585 96.6754 99.4079 96.6754C99.0207 96.6754 99.5369 95.2898 98.9037 95.2898C98.4816 95.2898 95.303 95.2559 94 95.2914C94.9159 96.0307 94.8804 97.6984 94.8804 100.197V106.738H94.8809ZM136.269 103.218C136.269 105.593 136.427 108.584 133.247 108.584C130.452 108.584 130.137 106.641 130.137 104.406V95.345H125.221C125.955 95.8344 126.248 96.665 126.248 97.8537V107.337C126.248 110.411 128.134 111.234 130.509 111.234C133.48 111.234 136.147 108.843 136.391 108.843C136.531 108.843 136.566 109.906 136.566 110.185L136.573 111.202L141.153 111.197C140.42 110.5 140.42 109.136 140.42 107.704L140.421 97.6011L140.551 95.3444H135.532C136.266 95.8338 136.258 96.9334 136.258 98.1211L136.269 103.218Z" fill="#385C3D"/>
<defs>
<filter id="filter0_d_5707_2118" x="0" y="0" width="280" height="201" filterUnits="userSpaceOnUse" color-interpolation-filters="sRGB">
<feFlood flood-opacity="0" result="BackgroundImageFix"/>
<feColorMatrix in="SourceAlpha" type="matrix" values="0 0 0 0 0 0 0 0 0 0 0 0 0 0 0 0 0 0 127 0" result="hardAlpha"/>
<feOffset dy="5"/>
<feGaussianBlur stdDeviation="30"/>
<feColorMatrix type="matrix" values="0 0 0 0 0.0284375 0 0 0 0 0.136552 0 0 0 0 0.1625 0 0 0 0.08 0"/>
<feBlend mode="normal" in2="BackgroundImageFix" result="effect1_dropShadow_5707_2118"/>
<feBlend mode="normal" in="SourceGraphic" in2="effect1_dropShadow_5707_2118" result="shape"/>
</filter>
</defs>
</svg>
