<svg width="280" height="201" viewBox="0 0 280 201" fill="none" xmlns="http://www.w3.org/2000/svg">
<g filter="url(#filter0_d_5707_2095)">
<rect x="60" y="55" width="160" height="81" rx="10" fill="white"/>
</g>
<g clip-path="url(#clip0_5707_2095)">
<path fill-rule="evenodd" clip-rule="evenodd" d="M123.793 102.11L124.916 99.4739C126.129 100.39 127.746 100.866 129.341 100.866C130.518 100.866 131.263 100.408 131.263 99.7139C131.245 97.7724 124.211 99.2921 124.157 94.4238C124.139 91.9515 126.313 90.0463 129.395 90.0463C131.227 90.0463 133.056 90.5044 134.363 91.5479L133.311 94.2384C132.116 93.4676 130.629 92.9186 129.215 92.9186C128.253 92.9186 127.62 93.3767 127.62 93.9621C127.638 95.8672 134.726 94.8238 134.798 99.4739C134.798 102.001 132.678 103.779 129.632 103.779C127.4 103.775 125.352 103.244 123.793 102.11ZM166.925 98.5213C166.363 99.5103 165.312 100.187 164.095 100.187C162.299 100.187 160.851 98.7213 160.851 96.9107C160.851 95.1001 162.302 93.6349 164.095 93.6349C165.308 93.6349 166.363 94.3111 166.925 95.3L170.024 93.5621C168.865 91.4752 166.633 90.0463 164.095 90.0463C160.34 90.0463 157.295 93.1222 157.295 96.9143C157.295 100.706 160.34 103.782 164.095 103.782C166.651 103.782 168.865 102.372 170.024 100.267L166.925 98.5213ZM136.357 84.3491H140.238V103.521H136.357V84.3491ZM171.547 84.3491V103.521H175.428V97.7687L180.032 103.521H185L179.143 96.6889L184.565 90.3154H179.813L175.424 95.6054V84.3491H171.547Z" fill="black"/>
<path d="M151.768 98.5577C151.207 99.4921 150.048 100.187 148.741 100.187C146.944 100.187 145.497 98.7213 145.497 96.9107C145.497 95.1 146.948 93.6348 148.741 93.6348C150.048 93.6348 151.207 94.3656 151.768 95.3182V98.5577ZM151.768 90.319V91.8751C151.135 90.7953 149.558 90.0427 147.906 90.0427C144.496 90.0427 141.814 93.0822 141.814 96.8925C141.814 100.703 144.496 103.779 147.906 103.779C149.554 103.779 151.131 103.03 151.768 101.946V103.502H155.649V90.319H151.768Z" fill="black"/>
<path fill-rule="evenodd" clip-rule="evenodd" d="M99.8061 98.5395C99.8061 99.8775 98.7369 100.957 97.4121 100.957C96.0873 100.957 95.0181 99.8738 95.0181 98.5395C95.0181 97.2052 96.0873 96.1217 97.4121 96.1217H99.8061V98.5395ZM101.001 98.5395C101.001 97.2015 102.07 96.1217 103.395 96.1217C104.72 96.1217 105.789 97.2015 105.789 98.5395V104.582C105.789 105.92 104.72 107 103.395 107C102.07 107 101.001 105.92 101.001 104.582V98.5395Z" fill="#E01E5A"/>
<path fill-rule="evenodd" clip-rule="evenodd" d="M103.395 88.8356C102.07 88.8356 101.001 87.7558 101.001 86.4178C101.001 85.0798 102.07 84 103.395 84C104.72 84 105.789 85.0798 105.789 86.4178V88.8356H103.395ZM103.395 90.0609C104.72 90.0609 105.789 91.1407 105.789 92.4787C105.789 93.8166 104.72 94.8965 103.395 94.8965H97.394C96.0692 94.8965 95 93.813 95 92.4787C95 91.1443 96.0692 90.0609 97.394 90.0609H103.395Z" fill="#36C5F0"/>
<path fill-rule="evenodd" clip-rule="evenodd" d="M112.986 92.4787C112.986 91.1407 114.055 90.0609 115.38 90.0609C116.704 90.0609 117.774 91.1407 117.774 92.4787C117.774 93.8166 116.704 94.8965 115.38 94.8965H112.986V92.4787ZM111.79 92.4787C111.79 93.8166 110.721 94.8965 109.396 94.8965C108.072 94.8965 107.002 93.8166 107.002 92.4787V86.4178C107.002 85.0798 108.072 84 109.396 84C110.721 84 111.79 85.0798 111.79 86.4178V92.4787Z" fill="#2EB67D"/>
<path fill-rule="evenodd" clip-rule="evenodd" d="M109.396 102.164C110.721 102.164 111.79 103.244 111.79 104.582C111.79 105.92 110.721 107 109.396 107C108.072 107 107.002 105.92 107.002 104.582V102.164H109.396ZM109.396 100.957C108.072 100.957 107.002 99.8775 107.002 98.5395C107.002 97.2015 108.072 96.1217 109.396 96.1217H115.398C116.722 96.1217 117.792 97.2015 117.792 98.5395C117.792 99.8775 116.722 100.957 115.398 100.957H109.396Z" fill="#ECB22E"/>
</g>
<defs>
<filter id="filter0_d_5707_2095" x="0" y="0" width="280" height="201" filterUnits="userSpaceOnUse" color-interpolation-filters="sRGB">
<feFlood flood-opacity="0" result="BackgroundImageFix"/>
<feColorMatrix in="SourceAlpha" type="matrix" values="0 0 0 0 0 0 0 0 0 0 0 0 0 0 0 0 0 0 127 0" result="hardAlpha"/>
<feOffset dy="5"/>
<feGaussianBlur stdDeviation="30"/>
<feColorMatrix type="matrix" values="0 0 0 0 0.0284375 0 0 0 0 0.136552 0 0 0 0 0.1625 0 0 0 0.08 0"/>
<feBlend mode="normal" in2="BackgroundImageFix" result="effect1_dropShadow_5707_2095"/>
<feBlend mode="normal" in="SourceGraphic" in2="effect1_dropShadow_5707_2095" result="shape"/>
</filter>
<clipPath id="clip0_5707_2095">
<rect width="90" height="23" fill="white" transform="translate(95 84)"/>
</clipPath>
</defs>
</svg>
