<svg width="980" height="87" viewBox="0 0 980 87" fill="none" xmlns="http://www.w3.org/2000/svg">
<path d="M1.25939 50.5724C1.02332 50.4291 0.715808 50.5043 0.572549 50.7404C0.429289 50.9765 0.504531 51.284 0.740606 51.4273L1.25939 50.5724ZM979.494 2.07511C979.536 1.8021 979.348 1.54716 979.075 1.50567L974.626 0.829687C974.353 0.788205 974.098 0.975895 974.057 1.2489C974.015 1.52191 974.203 1.77686 974.476 1.81834L978.431 2.41922L977.83 6.37383C977.788 6.64684 977.976 6.90178 978.249 6.94326C978.522 6.98475 978.777 6.79706 978.818 6.52405L979.494 2.07511ZM649 69L649.151 68.5234L649 69ZM1 50.9998C0.740606 51.4273 0.74063 51.4273 0.740659 51.4273C0.740675 51.4273 0.740709 51.4273 0.74074 51.4273C0.740803 51.4274 0.740885 51.4274 0.740984 51.4275C0.741183 51.4276 0.741455 51.4278 0.741799 51.428C0.742488 51.4284 0.743468 51.429 0.744739 51.4298C0.747281 51.4313 0.750986 51.4335 0.755851 51.4365C0.765582 51.4423 0.779955 51.451 0.798948 51.4623C0.836936 51.4851 0.893409 51.5187 0.968199 51.5629C1.11778 51.6512 1.34063 51.7815 1.63542 51.9506C2.225 52.2887 3.10233 52.7819 4.25674 53.4041L4.73118 52.5238C3.58478 51.9059 2.71513 51.417 2.13293 51.0831C1.84183 50.9162 1.62259 50.788 1.47656 50.7017C1.40354 50.6586 1.34883 50.626 1.31258 50.6043C1.29445 50.5935 1.28094 50.5854 1.27207 50.58C1.26764 50.5773 1.26436 50.5754 1.26225 50.5741C1.26119 50.5734 1.26042 50.573 1.25995 50.5727C1.25971 50.5725 1.25955 50.5724 1.25945 50.5724C1.25941 50.5724 1.25938 50.5723 1.25937 50.5723C1.25936 50.5723 1.25937 50.5723 1.25937 50.5723C1.25938 50.5723 1.25939 50.5724 1 50.9998ZM11.5298 57.1051C13.691 58.1492 16.1617 59.299 18.9281 60.5206L19.3321 59.6059C16.5765 58.389 14.1161 57.244 11.9648 56.2047L11.5298 57.1051ZM26.4954 63.7228C28.8683 64.6849 31.3925 65.6703 34.0626 66.6659L34.412 65.7289C31.751 64.7367 29.2356 63.7547 26.8712 62.7961L26.4954 63.7228ZM41.7299 69.406C44.2131 70.2558 46.7975 71.1044 49.4797 71.9437L49.7784 70.9894C47.1047 70.1527 44.5287 69.3069 42.0536 68.4599L41.7299 69.406ZM57.2948 74.2782C59.8443 75.0039 62.4691 75.7165 65.1667 76.4103L65.4158 75.4418C62.7266 74.7502 60.1101 74.0399 57.5685 73.3164L57.2948 74.2782ZM73.0916 78.3412C75.6913 78.9398 78.3503 79.518 81.0671 80.0716L81.2668 79.0917C78.5584 78.5399 75.9076 77.9634 73.316 77.3667L73.0916 78.3412ZM89.0915 81.6013C91.733 82.0704 94.4234 82.5144 97.1612 82.9295L97.3111 81.9408C94.5818 81.5269 91.8997 81.0844 89.2663 80.6168L89.0915 81.6013ZM105.209 84.0468C107.864 84.3816 110.561 84.6881 113.296 84.9633L113.396 83.9683C110.669 83.694 107.981 83.3885 105.334 83.0547L105.209 84.0468ZM121.423 85.6774C124.109 85.8793 126.831 86.0501 129.586 86.1872L129.636 85.1885C126.889 85.0518 124.176 84.8815 121.498 84.6802L121.423 85.6774ZM137.72 86.4891C140.403 86.5548 143.116 86.5878 145.857 86.5857L145.856 85.5857C143.124 85.5878 140.419 85.5549 137.745 85.4894L137.72 86.4891ZM154.024 86.4764C156.718 86.4062 159.439 86.3015 162.184 86.1605L162.133 85.1618C159.396 85.3024 156.684 85.4067 153.998 85.4767L154.024 86.4764ZM170.294 85.6415C172.983 85.4355 175.695 85.194 178.428 84.9152L178.327 83.9204C175.602 84.1983 172.899 84.4391 170.218 84.6444L170.294 85.6415ZM186.538 83.9851C189.202 83.6456 191.885 83.2702 194.588 82.8574L194.437 81.8689C191.743 82.2804 189.067 82.6547 186.411 82.9931L186.538 83.9851ZM202.657 81.5215C205.304 81.0494 207.968 80.541 210.648 79.9946L210.449 79.0148C207.776 79.5595 205.121 80.0664 202.482 80.537L202.657 81.5215ZM218.611 78.2698C221.247 77.6651 223.898 77.0234 226.563 76.3433L226.316 75.3743C223.658 76.0524 221.015 76.6922 218.387 77.2952L218.611 78.2698ZM234.402 74.2427C237.009 73.5109 239.628 72.7421 242.26 71.9349L241.967 70.9789C239.343 71.7837 236.731 72.5503 234.132 73.28L234.402 74.2427ZM249.992 69.4646C252.555 68.6128 255.129 67.7244 257.713 66.7983L257.376 65.8569C254.799 66.7804 252.232 67.6663 249.677 68.5157L249.992 69.4646ZM265.346 63.9648C266.623 63.4741 267.903 62.9741 269.185 62.4647L268.815 61.5353C267.537 62.0434 266.261 62.542 264.987 63.0313L265.346 63.9648ZM269.185 62.4647C270.474 61.9524 271.757 61.4455 273.033 60.944L272.667 60.0132C271.39 60.5152 270.106 61.0226 268.815 61.5353L269.185 62.4647ZM280.616 57.9993C283.19 57.0118 285.737 56.047 288.26 55.1045L287.91 54.1677C285.385 55.1113 282.834 56.0772 280.258 57.0656L280.616 57.9993ZM295.856 52.3076C298.457 51.3638 301.032 50.4445 303.582 49.5496L303.251 48.606C300.698 49.5021 298.119 50.4225 295.515 51.3675L295.856 52.3076ZM311.252 46.9058C313.861 46.0233 316.443 45.167 319.001 44.3367L318.693 43.3856C316.131 44.2172 313.544 45.0747 310.932 45.9585L311.252 46.9058ZM326.777 41.8694C329.386 41.0609 331.97 40.2804 334.53 39.5273L334.248 38.568C331.683 39.3224 329.095 40.1044 326.481 40.9142L326.777 41.8694ZM342.4 37.2788C345.047 36.5455 347.669 35.8423 350.269 35.169L350.018 34.2009C347.413 34.8757 344.785 35.5803 342.133 36.3152L342.4 37.2788ZM358.139 33.2057C360.813 32.5644 363.465 31.9554 366.097 31.3784L365.883 30.4016C363.245 30.9801 360.586 31.5905 357.906 32.2333L358.139 33.2057ZM374.077 29.7144C376.759 29.1842 379.422 28.6878 382.068 28.2248L381.896 27.2398C379.243 27.704 376.573 28.2018 373.883 28.7334L374.077 29.7144ZM390.089 26.9155C392.797 26.5055 395.49 26.131 398.169 25.7914L398.043 24.7993C395.356 25.1399 392.656 25.5156 389.939 25.9267L390.089 26.9155ZM406.258 24.868C408.969 24.5929 411.669 24.3539 414.36 24.1503L414.285 23.1532C411.585 23.3574 408.877 23.5972 406.157 23.8731L406.258 24.868ZM422.478 23.6423C425.196 23.5077 427.908 23.4093 430.616 23.3464L430.593 22.3466C427.876 22.4097 425.155 22.5085 422.428 22.6435L422.478 23.6423ZM438.755 23.2639C441.466 23.2718 444.177 23.3148 446.891 23.3925L446.92 22.393C444.198 22.315 441.478 22.2718 438.758 22.2639L438.755 23.2639ZM455.025 23.7282C457.729 23.8736 460.438 24.0527 463.156 24.2649L463.234 23.268C460.508 23.0551 457.791 22.8755 455.079 22.7296L455.025 23.7282ZM471.255 24.9924C473.938 25.2643 476.632 25.5677 479.339 25.9019L479.462 24.9095C476.747 24.5743 474.046 24.2702 471.356 23.9975L471.255 24.9924ZM487.412 26.9836C490.085 27.3694 492.773 27.7841 495.479 28.2275L495.641 27.2407C492.929 26.7963 490.234 26.3805 487.555 25.9939L487.412 26.9836ZM503.488 29.6126C506.131 30.0934 508.794 30.6003 511.478 31.133L511.672 30.1521C508.984 29.6185 506.316 29.1105 503.667 28.6288L503.488 29.6126ZM519.467 32.7806C522.101 33.3435 524.756 33.93 527.435 34.5398L527.657 33.5648C524.974 32.954 522.315 32.3666 519.677 31.8027L519.467 32.7806ZM535.341 36.3894C537.957 37.0176 540.597 37.6668 543.262 38.3368L543.506 37.367C540.837 36.6961 538.194 36.0461 535.574 35.4171L535.341 36.3894ZM551.177 40.3671C553.765 41.0439 556.378 41.7393 559.017 42.453L559.278 41.4877C556.636 40.7733 554.021 40.0772 551.43 39.3996L551.177 40.3671ZM566.898 44.6162C569.485 45.3364 572.098 46.0732 574.737 46.8264L575.012 45.8648C572.37 45.111 569.756 44.3736 567.166 43.6528L566.898 44.6162ZM582.551 49.0805C585.149 49.8375 587.773 50.6095 590.424 51.3964L590.708 50.4377C588.056 49.6504 585.43 48.8779 582.831 48.1204L582.551 49.0805ZM598.177 53.7152C600.763 54.4947 603.376 55.2874 606.017 56.0934L606.309 55.1369C603.667 54.3307 601.053 53.5376 598.465 52.7578L598.177 53.7152ZM613.776 58.4748C616.351 59.2694 618.952 60.0758 621.58 60.8939L621.877 59.9391C619.249 59.1207 616.647 58.3141 614.07 57.5192L613.776 58.4748ZM629.35 63.3217C631.918 64.1269 634.512 64.9427 637.132 65.7688L637.432 64.8151C634.812 63.9888 632.218 63.1729 629.649 62.3675L629.35 63.3217ZM644.904 68.2258C646.213 68.6403 647.527 69.0572 648.849 69.4766L649.151 68.5234C647.83 68.104 646.515 67.687 645.206 67.2725L644.904 68.2258ZM648.849 69.4766C650.12 69.8801 651.391 70.2736 652.662 70.6572L652.951 69.6999C651.685 69.3176 650.418 68.9255 649.151 68.5234L648.849 69.4766ZM660.284 72.8414C662.843 73.5362 665.4 74.1918 667.956 74.8094L668.19 73.8374C665.644 73.222 663.096 72.5687 660.546 71.8764L660.284 72.8414ZM675.689 76.5652C678.282 77.1161 680.872 77.6288 683.458 78.1043L683.639 77.1208C681.061 76.6469 678.481 76.1361 675.897 75.587L675.689 76.5652ZM691.276 79.4318C693.895 79.8398 696.509 80.2106 699.118 80.5455L699.245 79.5536C696.645 79.2199 694.04 78.8503 691.43 78.4437L691.276 79.4318ZM706.994 81.4496C709.631 81.717 712.263 81.9484 714.887 82.1452L714.962 81.148C712.346 80.9519 709.724 80.7212 707.095 80.4547L706.994 81.4496ZM722.797 82.6356C725.445 82.7656 728.086 82.8613 730.718 82.9238L730.742 81.9241C728.118 81.8618 725.485 81.7664 722.846 81.6368L722.797 82.6356ZM738.638 83.0133C741.29 83.0104 743.934 82.9748 746.568 82.9078L746.543 81.9081C743.917 81.9749 741.281 82.0104 738.637 82.0133L738.638 83.0133ZM754.476 82.6119C757.128 82.4812 759.769 82.3195 762.398 82.1282L762.326 81.1309C759.704 81.3216 757.071 81.4828 754.427 81.6131L754.476 82.6119ZM770.276 81.4646C772.922 81.2115 775.555 80.9292 778.175 80.6194L778.057 79.6263C775.445 79.9353 772.819 80.2167 770.18 80.4691L770.276 81.4646ZM786.011 79.6058C788.644 79.2362 791.263 78.8395 793.867 78.4173L793.707 77.4302C791.11 77.8513 788.498 78.2469 785.872 78.6155L786.011 79.6058ZM801.662 77.0698C804.275 76.5903 806.871 76.0861 809.449 75.5586L809.249 74.5789C806.677 75.105 804.088 75.608 801.482 76.0862L801.662 77.0698ZM817.196 73.8937C819.783 73.3109 822.35 72.7057 824.898 72.0799L824.659 71.1088C822.118 71.7331 819.556 72.3368 816.976 72.9181L817.196 73.8937ZM832.59 70.1129C835.147 69.4332 837.682 68.7337 840.195 68.0164L839.92 67.0548C837.414 67.7705 834.884 68.4683 832.333 69.1464L832.59 70.1129ZM847.826 65.7622C850.367 64.9864 852.883 64.1935 855.372 63.3854L855.064 62.4343C852.58 63.2406 850.069 64.0317 847.534 64.8057L847.826 65.7622ZM862.881 60.8758C865.408 60.0072 867.904 59.1244 870.37 58.2295L870.029 57.2895C867.568 58.1825 865.077 59.0634 862.556 59.9301L862.881 60.8758ZM877.763 55.4769C880.265 54.5218 882.732 53.556 885.163 52.582L884.791 51.6538C882.365 52.6257 879.903 53.5895 877.407 54.5426L877.763 55.4769ZM892.504 49.5719C894.96 48.5416 897.375 47.5051 899.748 46.4652L899.347 45.5493C896.979 46.5871 894.568 47.6215 892.117 48.6497L892.504 49.5719ZM907 43.2194C909.451 42.099 911.852 40.9781 914.2 39.8602L913.77 38.9573C911.427 40.073 909.031 41.1917 906.584 42.3099L907 43.2194ZM921.314 36.4054C923.722 35.2131 926.067 34.0283 928.346 32.8554L927.889 31.9662C925.614 33.1368 923.274 34.3192 920.871 35.5092L921.314 36.4054ZM935.377 29.1687C937.791 27.8785 940.118 26.6092 942.357 25.3671L941.871 24.4927C939.638 25.7323 937.315 26.9991 934.905 28.2867L935.377 29.1687ZM949.262 21.4618C951.669 20.0745 953.946 18.7342 956.088 17.4512L955.574 16.5933C953.437 17.8735 951.164 19.211 948.762 20.5954L949.262 21.4618ZM962.806 13.3459C965.331 11.7711 967.587 10.3271 969.559 9.04061L969.013 8.20308C967.046 9.48603 964.796 10.9264 962.277 12.4974L962.806 13.3459ZM976.156 4.62064C977.187 3.90872 977.971 3.35492 978.498 2.97875C978.761 2.79067 978.961 2.647 979.094 2.55017C979.161 2.50175 979.211 2.46505 979.245 2.44036C979.262 2.42802 979.275 2.41868 979.283 2.41238C979.287 2.40923 979.291 2.40684 979.293 2.40522C979.294 2.40441 979.295 2.40379 979.295 2.40336C979.296 2.40315 979.296 2.40298 979.296 2.40286C979.296 2.4028 979.296 2.40276 979.296 2.40272C979.296 2.4027 979.296 2.40269 979.296 2.40268C979.296 2.40266 979.296 2.40265 979 2C978.704 1.59735 978.704 1.59734 978.704 1.59734C978.704 1.59734 978.704 1.59734 978.704 1.59735C978.704 1.59736 978.703 1.59739 978.703 1.59743C978.703 1.5975 978.703 1.59762 978.703 1.59779C978.703 1.59813 978.702 1.59867 978.701 1.59939C978.699 1.60084 978.696 1.60305 978.692 1.60602C978.684 1.61197 978.671 1.62095 978.655 1.63294C978.622 1.65692 978.573 1.69291 978.507 1.74061C978.375 1.83601 978.178 1.97824 977.917 2.16487C977.394 2.53811 976.614 3.08892 975.588 3.7978L976.156 4.62064Z" fill="#1E2875"/>
</svg>
