<svg width="280" height="201" viewBox="0 0 280 201" fill="none" xmlns="http://www.w3.org/2000/svg">
<g filter="url(#filter0_d_5707_2123)">
<rect x="60" y="55" width="160" height="81" rx="10" fill="white"/>
</g>
<path fill-rule="evenodd" clip-rule="evenodd" d="M99.3125 100.695L112.384 106.949L127.059 89.793L99.3125 100.695Z" fill="#B01842"/>
<path fill-rule="evenodd" clip-rule="evenodd" d="M98 95.9864L111.308 101.722L125.295 84L98 95.9864Z" fill="#F6D43C"/>
<path fill-rule="evenodd" clip-rule="evenodd" d="M131.729 90.9922C127.091 90.9922 123.318 94.7653 123.318 99.4026C123.318 101.61 124.183 103.69 125.751 105.258C127.344 106.852 129.467 107.73 131.729 107.73C133.99 107.73 136.113 106.852 137.706 105.258C139.275 103.69 140.139 101.61 140.139 99.4026C140.139 97.1479 139.27 95.0378 137.693 93.4602C136.912 92.6749 135.982 92.0524 134.958 91.6287C133.934 91.2051 132.837 90.9888 131.729 90.9922ZM131.729 104.448C130.439 104.448 129.219 103.938 128.294 103.013C127.334 102.048 126.793 100.743 126.788 99.3816C126.788 97.9825 127.323 96.6769 128.294 95.7059C129.218 94.7825 130.438 94.2734 131.729 94.2734C133.02 94.2734 134.239 94.7825 135.163 95.7059C136.134 96.6769 136.669 97.9825 136.669 99.3816C136.669 102.175 134.453 104.448 131.729 104.448ZM181.538 106.945L176.291 99.3807L181.539 91.7753L181.862 91.3062H177.824L177.735 91.4355L174.254 96.4813L170.873 91.4389L170.784 91.3062H166.21L166.121 91.4355L162.621 96.5071L158.647 91.4212L158.558 91.3062H151.358V101.965L144.253 91.4379L144.164 91.3057H140.435V107.414H143.906V96.7495L151.074 107.284L151.164 107.414H154.829V91.8817L160.568 99.3902L155.348 106.946L155.024 107.415H159.169L159.259 107.283L162.884 101.918C162.881 101.924 164.558 99.5553 164.56 99.5525L168.441 93.9274L172.189 99.3816L166.961 106.946L166.637 107.415H170.782L170.872 107.283L174.253 102.28L177.734 107.286L177.824 107.415H181.864L181.538 106.945Z" fill="#90969B"/>
<defs>
<filter id="filter0_d_5707_2123" x="0" y="0" width="280" height="201" filterUnits="userSpaceOnUse" color-interpolation-filters="sRGB">
<feFlood flood-opacity="0" result="BackgroundImageFix"/>
<feColorMatrix in="SourceAlpha" type="matrix" values="0 0 0 0 0 0 0 0 0 0 0 0 0 0 0 0 0 0 127 0" result="hardAlpha"/>
<feOffset dy="5"/>
<feGaussianBlur stdDeviation="30"/>
<feColorMatrix type="matrix" values="0 0 0 0 0.0284375 0 0 0 0 0.136552 0 0 0 0 0.1625 0 0 0 0.08 0"/>
<feBlend mode="normal" in2="BackgroundImageFix" result="effect1_dropShadow_5707_2123"/>
<feBlend mode="normal" in="SourceGraphic" in2="effect1_dropShadow_5707_2123" result="shape"/>
</filter>
</defs>
</svg>
